<?xml version="1.0" encoding="iso-8859-1"?>
<!-- Generator: Adobe Illustrator 19.0.0, SVG Export Plug-In . SVG Version: 6.00 Build 0)  -->
<svg version="1.1" id="Layer_1" xmlns="http://www.w3.org/2000/svg" xmlns:xlink="http://www.w3.org/1999/xlink" x="0px" y="0px"
	 viewBox="0 0 512 512" style="enable-background:new 0 0 512 512;" xml:space="preserve">
<path style="fill:#FF6465;" d="M255.998,276.933v93.972c0,32.919,26.686,59.606,59.606,59.606h31.62V276.933H255.998z"/>
<path style="fill:#E65A5B;" d="M255.998,331.947L255.998,331.947c10.734,0,19.466,8.733,19.466,19.466v63.554
	c10.592,9.655,24.677,15.544,40.14,15.544h31.62V276.933h-91.225V331.947z"/>
<path style="fill:#3F3F4D;" d="M80.946,140.432v76.827c0,47.967,78.373,86.852,175.052,86.852l0,0
	c26.125,0,47.302,21.178,47.302,47.302v96.712c0,35.277,28.598,63.875,63.875,63.875l0,0c35.277,0,63.875-28.598,63.875-63.875
	V140.432H80.946z"/>
<ellipse style="fill:#707287;" cx="256" cy="140.427" rx="175.055" ry="86.848"/>
<ellipse style="fill:#3F3F4D;" cx="211.462" cy="140.427" rx="65.181" ry="34.862"/>
<path style="fill:#AFB6C7;" d="M191.275,36.86v92.293c0,11.148,9.038,20.186,20.186,20.186l0,0c11.148,0,20.186-9.038,20.186-20.186
	V36.86C231.646,36.86,191.275,36.86,191.275,36.86z"/>
<path style="opacity:0.1;enable-background:new    ;" d="M191.275,105.889c6.351,1.279,13.111,1.973,20.186,1.973
	c7.075,0,13.834-0.694,20.186-1.973V36.86h-40.371V105.889z"/>
<path style="fill:#E65A5B;" d="M254.182,56.715c0,12.875-19.128,23.312-42.722,23.312s-42.722-10.437-42.722-23.312V23.312h85.444
	v33.403H254.182z"/>
<ellipse style="fill:#FF6465;" cx="211.462" cy="23.312" rx="42.723" ry="23.312"/>
<path style="fill:#5FBA91;" d="M355.798,95.101c0,10.738-15.952,19.443-35.631,19.443s-35.631-8.705-35.631-19.443V67.243h71.261
	v27.858H355.798z"/>
<ellipse style="fill:#6BD1A3;" cx="320.168" cy="67.241" rx="35.63" ry="19.443"/>
<path style="fill:#E65A5B;" d="M399.222,149.66c0,10.738-15.952,19.443-35.631,19.443c-19.679,0-35.631-8.705-35.631-19.443v-27.858
	h71.261v27.858H399.222z"/>
<ellipse style="fill:#FF6465;" cx="363.592" cy="121.799" rx="35.63" ry="19.443"/>
<g>
</g>
<g>
</g>
<g>
</g>
<g>
</g>
<g>
</g>
<g>
</g>
<g>
</g>
<g>
</g>
<g>
</g>
<g>
</g>
<g>
</g>
<g>
</g>
<g>
</g>
<g>
</g>
<g>
</g>
</svg>
